# xmcd
#
# Track frame offsets:
#	150
#	2720
#	23242
#	38973
#	58353
#	81013
#	98216
#	114946
#	130789
#	147719
#	167104
#	180698
#	190957
#
# Disc length: 2689 seconds
#
# Revision: 0
# Processed by: cddbd v1.5.1PL0 Copyright (c) Steve Scherf et al.
# Submitted via: dBpowerAMP V4.0
#
DISCID=b30a7f0d
DTITLE=Various Artist - South Siders Chapter 13, Vol. 1
DYEAR=1900
DGENRE=Rap
TTITLE0=Various Artist - Intro
TTITLE1=Knight Owl - West Coast Party
TTITLE2=Conecta - The Villans in Blue
TTITLE3=Lil Rob - Those Who Talk (2000 remix)
TTITLE4=Ese O.F.I. - Sur Bangin' Thugs
TTITLE5=Proper Dos and Royal T - We Run This Mother
TTITLE6=Califa Thugs - Risin' in the Game
TTITLE7=Lil One - Dedication
TTITLE8=Mr. Yayo - What You Don't Know
TTITLE9=Frost and Knight Owl - Who Be The Real
TTITLE10=Royal T - Chicanos Don't Dance
TTITLE11=Mr. Sancho - My Name is Estilo
TTITLE12=Mr. Sancho - Low Profile Mix
EXTD=
EXTT0=
EXTT1=
EXTT2=
EXTT3=
EXTT4=
EXTT5=
EXTT6=
EXTT7=
EXTT8=
EXTT9=
EXTT10=
EXTT11=
EXTT12=
PLAYORDER=
